<svg width="730" height="300" xmlns="http://www.w3.org/2000/svg">
    <metadata id="metadata1346">image/svg+xml</metadata>
    <g>
        <title>background</title>
        <rect fill="none" id="canvas_background" height="302" width="732" y="-1" x="-1"/>
    </g>
    <g>
        <title>Layer 1</title>
        <g id="layer1">
            <g id="g2486">
                <path fill="#bd0000" fill-rule="evenodd" stroke-width="1pt" id="path2577" d="m344.975836,227.037165c0,0 -0.01706,0 -0.01706,0c-1.6029,0 -3.01824,0.52862 -4.34831,1.60291c-0.98903,0.7844 -1.67112,1.84164 -2.21679,3.01824c0,0 0.06821,0 0.06821,0c0.54567,-1.1766 1.22776,-2.23384 2.19974,-3.01824c1.33007,-1.07429 2.7454,-1.58586 4.31421,-1.60291z"/>
                <path fill="#bd0000" fill-rule="evenodd" stroke-width="1pt" id="path2579" d="m79.464956,21.592565c0.00002,0 -59.30973,258.76742 -59.30973,258.76742c0.01705,0 0.01919,0 0.05329,0c0,0 274.38081,0 274.38081,0c0.00001,0 142.70573,0 142.70573,0c-17.00107,-1.48353 -30.42327,-7.45182 -38.42076,-18.33112c-1.48353,-2.01219 -2.70918,-4.17993 -3.78347,-6.44788c-0.68207,-1.6711 -1.32368,-3.35715 -1.97167,-5.06237c-1.70524,-5.42261 -2.38517,-11.43991 -2.07824,-17.85154c0.85262,-17.87074 9.23805,-39.12802 23.76654,-61.38798c15.43225,-23.65656 37.79837,-48.45089 65.49116,-71.45944c6.20699,-5.15319 12.62503,-10.24199 19.34361,-15.18714c8.30441,-6.10979 16.67281,-11.73661 25.04545,-16.99893c30.84745,-19.42077 61.61817,-33.01012 88.88467,-39.91282c-26.05577,8.50051 -55.32805,22.93138 -84.24861,42.57724c-1.04016,0.70255 -2.06758,1.42215 -3.09072,2.13152c-16.04613,11.11805 -30.58314,22.92586 -43.26998,34.85046c-40.82303,38.38457 -62.40046,78.15884 -52.59544,101.46069c0.69916,1.6029 1.53256,3.13335 2.50455,4.58279c10.53825,15.50047 36.65587,18.17979 69.75422,9.85831c2.25089,-0.56275 4.50178,-1.20004 6.82088,-1.86508c10.57238,-3.05237 21.797,-7.17473 33.3584,-12.25628c2.77949,-1.22777 5.58887,-2.48963 8.41953,-3.83676c0.28988,-0.13641 0.56273,-0.27283 0.85261,-0.4263c36.49173,-18.13162 64.53625,-38.99458 70.60684,-51.52967c1.33008,-2.72662 1.6498,-5.0513 0.74603,-6.87417c-4.33124,-8.78188 -34.63945,-2.849 -71.35287,13.0556c-2.95003,1.2789 -5.93417,2.59492 -8.95241,3.99661c2.45552,-2.27986 5.01123,-4.56828 7.6202,-6.82089c4.16075,-3.58438 8.46856,-7.08945 13.0556,-10.55104c7.179,-5.43627 14.43685,-10.35071 21.58173,-14.70754c33.45643,-25.24067 50.3701,-49.11722 46.8403,-57.97753c-0.66505,-1.66943 -2.08037,-2.81789 -4.26306,-3.51703c-6.97438,-2.21847 -19.70383,0.42929 -35.17019,6.7676c-12.75504,5.23164 -27.40504,12.9908 -42.25752,22.64748c0,0 -2.02495,1.3322 -2.02495,1.3322c0.00002,0 -0.37302,0.21314 -0.37302,0.21314c0.00002,0.00002 -7.14061,4.74265 -7.14061,4.74265c-0.00002,-0.00001 4.10319,-7.51363 4.10319,-7.51363c6.08765,-11.14364 16.0035,-22.77067 28.3493,-33.57154c9.05473,-7.89689 19.39903,-15.33762 30.53413,-21.84816c4.21191,-2.46573 8.4174,-4.75586 12.62929,-6.82088c4.31422,-2.10769 8.63055,-3.98089 12.84246,-5.64859c12.23682,-4.8393 23.91781,-7.7798 34.10442,-8.5794c-0.92767,0 -28.61574,0 -28.61574,0c0.00001,0 -96.45159,0 -96.45159,0c0.00001,0 -425.29295,0 -425.29295,0c0,0 -33.73141,0 -33.73141,0zm305.98071,0.3731c-1.67109,25.50496 3.27403,62.86211 14.49439,104.3382c1.99509,7.38021 4.16712,14.89085 6.55444,22.48762c1.48356,4.69104 3.01399,9.30881 4.58278,13.85492c-0.9208,1.35396 -1.84804,2.69937 -2.7177,4.0499c-13.99985,21.45508 -22.1828,41.73104 -24.24611,59.36303c-5.91714,-19.81468 -10.37201,-41.5183 -12.89574,-64.53198c-0.71619,-6.5941 -1.27679,-13.11442 -1.65194,-19.55675c-2.76247,-46.79639 3.34649,-89.2172 15.87988,-120.00494zm-279.3899,33.1985c0.31934,-0.00754 0.63414,0 0.95918,0c0,-0.00002 63.03991,0 63.03991,0c5.38851,-0.00002 9.55564,1.00991 12.52272,3.03742c2.95002,2.03946 4.05631,4.67743 3.35715,7.88665c0.00002,0.00002 -7.51363,33.94456 -7.51363,33.94456c0,0.00003 -22.22116,0 -22.22116,0c0.00002,0.00003 7.30048,-33.03866 7.30048,-33.03866c-0.00002,0 -55.63285,0 -55.63285,0c-0.00002,0 -20.08965,90.80305 -20.08965,90.80305c0.00002,0 -7.24719,32.87881 -7.24719,32.87881c0,0.00003 55.57957,0 55.57957,0c0,0.00003 0.05329,-0.21316 0.05329,-0.21316c0,0.00002 11.13722,-50.30404 11.13722,-50.30404c0,-0.00002 -26.1112,0 -26.1112,0c0,-0.00002 2.50454,-11.35038 2.50454,-11.35038c-0.00001,-0.00002 48.33238,0 48.33238,0c0,-0.00002 -13.85493,62.77348 -13.85493,62.77348c-0.18757,0.89352 -0.51582,1.70308 -0.95919,2.50453c-1.14249,2.08037 -3.13547,3.86234 -5.91498,5.32883c-3.85378,2.02923 -8.46643,3.03742 -13.85493,3.03742c0,0.00002 -62.98662,0 -62.98662,0c-5.38852,0.00002 -9.55564,-1.00821 -12.52272,-3.03742c-2.95001,-2.0292 -4.07335,-4.62073 -3.35715,-7.83336c0.00001,-0.00002 27.76313,-125.49366 27.76313,-125.49366c0.71618,-3.20921 2.95005,-5.84721 6.82089,-7.88665c0.13642,-0.07331 0.28989,-0.08995 0.4263,-0.15986c3.53302,-1.7697 7.67937,-2.76443 12.46944,-2.87756zm98.79628,0c-0.00002,-0.00002 79.34608,0 79.34608,0c5.32031,-0.00002 9.50235,1.00991 12.46943,3.03742c2.98417,2.03946 4.12666,4.67743 3.41045,7.88665c0.00002,0.00002 -14.81411,66.92995 -14.81411,66.92995c-0.69912,3.18874 -2.98627,5.7905 -6.87417,7.83336c-3.8879,2.04966 -8.4643,3.09071 -13.80164,3.09071c-0.00002,0 -57.6578,0 -57.6578,0c0,0 -11.13723,50.25075 -11.13723,50.25075c0,0.00002 -1.8118,8.25967 -1.8118,8.25967c0.00001,0.00002 -21.74158,0 -21.74158,0c0,0.00002 1.65193,-7.46034 1.65193,-7.46034c0,0.00002 30.96044,-139.82817 30.96044,-139.82817zm109.61377,0c-0.00001,-0.00002 21.74158,0 21.74158,0c0.00002,-0.00002 -24.61914,111.21241 -24.61914,111.21241c0.00002,0.00002 -5.3821,24.29942 -5.3821,24.29942c0,0.00003 52.00926,0 52.00926,0c0.54568,3.98854 1.18299,7.90582 1.86508,11.77668c-0.00002,0.00002 -78.22705,0 -78.22705,0c0.00002,0.00002 6.18143,-27.92301 6.18143,-27.92301c0.00002,0 26.43094,-119.3655 26.43094,-119.3655zm-90.48332,11.82997c0.00002,0 -14.4411,65.11814 -14.4411,65.11814c0,-0.00002 54.19408,0 54.19408,0c-0.00001,-0.00002 14.3878,-65.11814 14.3878,-65.11814c0.00002,0 -54.14078,0 -54.14078,0zm-45.5614,145.68987c0.21267,-0.00715 0.42524,0 0.63947,0c2.52373,0.00002 4.72772,0.44336 6.50115,1.27891c1.8928,0.88671 3.24632,2.204 3.99662,3.94333c0.73325,1.68819 0.92508,3.60441 0.53287,5.70184c0,0.00001 -0.15985,0.79933 -0.15985,0.79933c0.00001,-0.00003 -6.23472,0 -6.23472,0c-0.00002,-0.00003 0.05329,-0.74605 0.05329,-0.74605c0.16118,-1.46543 -0.02049,-2.61779 -0.58618,-3.41043c-0.07372,-0.09941 -0.18053,-0.23063 -0.26644,-0.31973c-0.14068,-0.14363 -0.35198,-0.3078 -0.53287,-0.42631c-0.87238,-0.5495 -2.23703,-0.85262 -3.99662,-0.85262c-2.33615,0.00002 -4.08187,0.40712 -5.27552,1.22564c-1.15956,0.80146 -1.8928,1.6967 -2.13153,2.77098c-0.23875,1.09134 0.15346,1.66472 0.42631,1.97166c0.0085,0.00849 0.04293,0.04377 0.05327,0.05329c0.34552,0.29445 1.54536,0.98476 5.27553,1.86508c3.37632,0.81851 5.61232,1.55389 6.87418,2.18482c1.90987,0.97196 3.24419,2.2317 3.94334,3.78346c0.69911,1.53472 0.8526,3.33157 0.4263,5.27553c-0.4263,1.89279 -1.39189,3.63852 -2.82428,5.27554c-1.41532,1.637 -3.21647,2.93297 -5.38211,3.83673c-2.1486,0.88672 -4.50604,1.38549 -6.92746,1.38549c-3.0694,-0.00001 -5.53343,-0.46467 -7.46034,-1.38549c-2.01217,-0.95491 -3.46374,-2.4619 -4.31634,-4.42291c-0.81851,-1.90986 -0.9933,-4.07762 -0.53289,-6.44786c0,-0.00003 0.15987,-0.74605 0.15987,-0.74605c0,0 6.12814,0 6.12814,0c0,0 -0.05329,0.74605 -0.05329,0.74605c-0.15348,1.41532 -0.00213,2.55782 0.37302,3.41043c0.35809,0.81853 1.04019,1.49633 2.13152,2.02496c1.15954,0.5627 2.60898,0.8526 4.26305,0.8526c1.48355,-0.00001 2.83921,-0.24939 4.04991,-0.69273c1.19365,-0.4263 2.14218,-0.98904 2.82427,-1.70523c0.66502,-0.71622 1.05511,-1.47288 1.22563,-2.2914c0.17052,-0.73324 0.13002,-1.3535 -0.15987,-1.86508c-0.32399,-0.54564 -0.96558,-1.02953 -1.97165,-1.43878c0,-0.00001 -5.22226,-1.54536 -5.22226,-1.54536c-2.91592,-0.73323 -4.87905,-1.43238 -6.02155,-2.13152c-1.55177,-0.92081 -2.67081,-2.10169 -3.25059,-3.51702c-0.57977,-1.39831 -0.64158,-2.94791 -0.26643,-4.63608c0.3922,-1.80753 1.26399,-3.52767 2.61111,-5.06237c1.3642,-1.55177 3.12482,-2.76885 5.22225,-3.57031c1.85443,-0.6954 3.80596,-1.10321 5.86169,-1.17234zm55.9526,0.10658c0.33725,-0.02627 0.65436,0 1.01247,0c0.00001,0 3.83675,0.4263 3.83675,0.4263c-0.00001,0 1.27891,0.10658 1.27891,0.10658c0.00002,0.00001 -1.86508,4.74264 -1.86508,4.74264c-0.00001,0.00002 -0.37302,0.74604 -0.37302,0.74604c0,-0.00002 -2.93084,-0.26644 -2.93084,-0.26644c-0.86541,0 -1.50113,0.13352 -1.91838,0.4263c-0.02771,0.02093 -0.081,0.0842 -0.10658,0.10658c-0.0559,0.04904 -0.14991,0.13458 -0.21315,0.21316c-0.25659,0.33651 -0.56912,0.93786 -0.79932,2.02495c-0.00002,0 -0.11084,0.4604 -0.21315,0.85261c1.34713,0.00001 4.58277,0 4.58277,0c0,0.00001 -1.17233,5.27552 -1.17233,5.27552c0,-0.00001 -3.35076,0 -4.4762,0c-0.34106,1.53469 -4.5295,20.3028 -4.5295,20.3028c-0.00002,-0.00002 -6.18143,0 -6.18143,0c-0.00002,-0.00002 4.01793,-18.03485 4.5295,-20.3028c-1.04021,-0.00001 -3.57031,0 -3.57031,0c0,-0.00001 1.17234,-5.27552 1.17234,-5.27552c0.00001,0.00001 2.54504,0 3.51701,0c0.17052,-0.73324 0.4263,-1.65194 0.4263,-1.65194c0.37516,-1.70522 0.76735,-2.93085 1.27891,-3.78346c0.69917,-1.17659 1.68606,-2.16137 2.93087,-2.87756c1.02527,-0.59575 2.32198,-0.95194 3.78346,-1.06576zm14.76082,0.26644c-0.00002,-0.00001 -1.6157,7.27064 -2.02495,9.11228c1.19364,0.00001 3.99661,0 3.99661,0c0,0.00001 -1.17233,5.27552 -1.17233,5.27552c-0.00002,-0.00001 -2.93939,0 -3.99662,0c-0.32401,1.46647 -2.87756,12.84246 -2.87756,12.84246c0.00002,-0.00002 -0.21316,1.36631 -0.21316,1.75851c0.00028,0.01305 -0.00106,0.04368 0,0.05328c0.00084,0.00403 -0.0012,0.04997 0,0.05329c0.00164,0.00269 0.05115,-0.00214 0.05328,0c0,-0.00002 0.63947,0.05329 0.63947,0.05329c0,0 2.93085,-0.21315 2.93085,-0.21315c0,0 -0.31973,4.74264 -0.31973,4.74264c0.00002,0 0.0533,0.85261 0.0533,0.85261c-0.00002,-0.00002 -4.20978,0.4796 -4.20978,0.4796c-1.6711,-0.00002 -2.89675,-0.27283 -3.78346,-0.8526c-0.93785,-0.61392 -1.48354,-1.42814 -1.70522,-2.45126c-0.03411,-0.18759 -0.10658,-0.46042 -0.10658,-0.85261c0,-0.76736 0.14495,-2.06545 0.63946,-4.31634c0.00002,0.00002 2.24023,-10.03524 2.7177,-12.14972c-0.80143,-0.00001 -2.93085,0 -2.93085,0c0.00002,-0.00001 1.17233,-5.27552 1.17233,-5.27552c-0.00002,0.00001 2.07824,0 2.93086,0c0.27281,-1.22775 1.22562,-5.4354 1.22562,-5.4354c0,0.00002 4.95581,-2.61112 4.95581,-2.61112c-0.00001,0.00002 2.02495,-1.06576 2.02495,-1.06576zm-196.36693,0.21315c0.00002,0 23.97968,0 23.97968,0c0,0 -1.3322,5.96828 -1.3322,5.96828c0,0.00002 -15.99711,0 -17.53181,0c-0.27282,1.21073 -1.36631,6.11322 -1.75851,7.88665c2.2168,0 15.18713,0 15.18713,0c0,0 -1.33221,5.96826 -1.33221,5.96826c-0.00001,0 -13.65242,0 -15.18713,0c-0.32399,1.48355 -3.25058,14.65426 -3.25058,14.65426c0.00002,-0.00002 -6.44786,0 -6.44786,0c0.00001,-0.00002 7.67349,-34.47745 7.67349,-34.47745zm32.13276,8.41954c0.24067,-0.02956 0.50358,0 0.74604,0c1.5347,0 2.95217,0.4668 4.31635,1.43877c0,0.00002 0.8526,0.58617 0.8526,0.58617c0,0 -3.30386,5.4354 -3.30386,5.4354c0,-0.00002 -0.90589,-0.63946 -0.90589,-0.63946c-0.66504,-0.42629 -1.38123,-0.63946 -2.13153,-0.63946c-0.64799,0.00002 -1.25121,0.2302 -1.86509,0.63946c-0.64797,0.4263 -1.1894,0.99115 -1.59864,1.75851c-0.7162,1.31304 -1.24056,2.78377 -1.59865,4.36963c0,0.00001 -2.87756,13.10889 -2.87756,13.10889c0,-0.00002 -6.18143,0 -6.18143,0c0,-0.00002 5.70184,-25.57832 5.70184,-25.57832c0.00002,0.00001 5.75512,0 5.75512,0c0,0.00001 -0.19824,0.77588 -0.26645,1.06576c0.27284,-0.20461 0.56059,-0.48599 0.79933,-0.63946c0.82597,-0.4929 1.69837,-0.80035 2.55782,-0.90589zm18.33114,0c0.37219,-0.02815 0.73859,0 1.11906,0c3.47866,0 6.11108,1.21922 7.83335,3.62359c1.07428,1.55174 1.65195,3.47012 1.65195,5.75512c0,1.26185 -0.15561,2.61965 -0.47959,4.10319c0,0 -0.47961,1.86509 -0.47961,1.86509c0,-0.00002 -15.63261,0 -17.37194,0c-0.03411,0.35808 -0.05329,0.74177 -0.05329,1.06576c0,1.33009 0.27283,2.37665 0.85261,3.14401c0.2755,0.37513 0.5949,0.71299 0.95919,0.95918c0.68678,0.44789 1.57334,0.69275 2.61112,0.69275c1.26188,-0.00002 2.37025,-0.34745 3.41044,-1.01248c0.98905,-0.63093 1.93544,-1.63914 2.77099,-3.03742c0,-0.00003 6.60773,0 6.60773,0c0,-0.00003 -0.58616,1.27891 -0.58616,1.27891c-1.26187,2.55785 -3.02251,4.55294 -5.22225,5.96828c-2.19973,1.41533 -4.82791,2.1848 -7.72679,2.1848c-3.76854,-0.00001 -6.57363,-1.21922 -8.31296,-3.62358c-1.72226,-2.35323 -2.09315,-5.60593 -1.17233,-9.69846c0.92083,-4.16073 2.7582,-7.48591 5.43539,-9.80502c2.39958,-2.08062 5.12245,-3.23468 8.15309,-3.46372zm27.76315,0c0.37218,-0.02815 0.73857,0 1.11904,0c3.47867,0 6.1111,1.21922 7.83337,3.62359c1.07429,1.55174 1.65193,3.47012 1.65193,5.75512c0,1.2448 -0.1556,2.58341 -0.4796,4.0499c0,0.00002 -0.47958,1.91838 -0.47958,1.91838c0,-0.00002 -15.63263,0 -17.37195,0c-0.01707,0.2387 -0.03624,0.45402 -0.05329,0.69275c-0.01279,0.08952 0.0056,0.22541 0,0.31972c-0.0005,0.01538 0,0.03837 0,0.05329c0,0.2558 0.03624,0.5073 0.05329,0.74604c0.08523,0.97196 0.33892,1.78409 0.79932,2.39797c0.08767,0.11936 0.17008,0.2667 0.26644,0.37302c0.78101,0.83554 1.8864,1.27891 3.30387,1.27891c1.26188,-0.00002 2.38731,-0.34745 3.41045,-1.01248c0.98904,-0.63093 1.93542,-1.63914 2.77098,-3.03742c0,-0.00003 6.66102,0 6.66102,0c-0.00001,-0.00003 -0.63946,1.27891 -0.63946,1.27891c-1.26186,2.55785 -3.0225,4.55294 -5.22224,5.96828c-2.19974,1.41533 -4.82791,2.1848 -7.72678,2.1848c-3.76853,-0.00001 -6.57363,-1.21922 -8.31296,-3.62358c-1.12545,-1.53472 -1.65194,-3.48931 -1.65194,-5.80841c0,-0.35812 0.01918,-0.74391 0.05329,-1.11905c0.06823,-0.88671 0.20463,-1.78196 0.42631,-2.771c0.92084,-4.14368 2.70491,-7.48591 5.3821,-9.80502c2.39957,-2.08062 5.17575,-3.23468 8.20639,-3.46372zm75.61591,0c0.38084,-0.02929 0.73112,0 1.11905,0c3.54687,0 6.2731,1.20004 8.04652,3.5703c1.7564,2.37023 2.18269,5.56754 1.27891,9.59186c-0.69913,3.13763 -1.70947,5.672 -3.0907,7.51365c-1.38126,1.84165 -3.14188,3.34649 -5.22226,4.36962c-2.06328,1.02314 -4.24813,1.54535 -6.44786,1.54535c-3.61507,-0.00001 -6.30719,-1.23628 -8.04652,-3.62358c-1.12546,-1.51764 -1.70522,-3.47226 -1.70522,-5.80841c0.00002,-1.26187 0.13856,-2.6026 0.4796,-4.10319c1.02315,-4.57001 3.11202,-8.05078 6.18143,-10.28462c2.25301,-1.62634 4.74114,-2.56606 7.40705,-2.77098zm93.62733,0c0.4496,-0.02775 0.86593,0 1.3322,0c2.14859,0 3.83675,0.2174 5.11567,0.74602c1.36418,0.54569 2.33189,1.31729 2.87756,2.23811c0.52864,0.86963 0.79933,1.93756 0.79933,3.25057c0.00001,0.00002 -0.63948,3.89004 -0.63948,3.89004c0.00003,0 -1.17232,5.27554 -1.17232,5.27554c-1.00611,4.50176 -1.22776,6.18995 -1.27893,6.82089c-0.05115,0.85262 0.02771,1.6839 0.26645,2.45125c0.00002,-0.00002 0.4263,1.38549 0.4263,1.38549c0.00002,-0.00002 -6.288,0 -6.288,0c-0.00002,-0.00002 -0.26645,-0.79933 -0.26645,-0.79933c-0.10231,-0.37512 -0.07247,-0.8526 -0.10657,-1.27891c-1.19365,0.73325 -2.38944,1.38336 -3.46373,1.75851c-1.58584,0.54569 -3.23139,0.8526 -4.90251,0.8526c-2.89886,-0.00001 -5.04532,-0.75454 -6.3413,-2.2381c-0.98902,-1.09133 -1.43877,-2.42567 -1.43877,-3.94332c-0.00002,-0.57977 0.07673,-1.18087 0.21314,-1.81179c0.28988,-1.29597 0.81638,-2.49603 1.65194,-3.57032c0.81851,-1.05726 1.78623,-1.92689 2.87756,-2.55782c1.05726,-0.63092 2.23598,-1.07855 3.46374,-1.3855c-0.00002,0 3.78346,-0.63946 3.78346,-0.63946c2.91594,-0.34106 5.09221,-0.76521 6.66102,-1.22562c0.03412,-0.17052 0.10657,-0.37302 0.10657,-0.37302c0.24726,-1.09718 0.21632,-1.92188 -0.05329,-2.34468c-0.01984,-0.02727 -0.08418,-0.08314 -0.10657,-0.10658c-0.05756,-0.06135 -0.14603,-0.15779 -0.21316,-0.21315c-0.64135,-0.50753 -1.73506,-0.74603 -3.19728,-0.74603c-1.65407,0 -2.87756,0.27071 -3.73018,0.79931c-0.83555,0.52863 -1.60931,1.49634 -2.29139,2.87756c-0.00001,-0.00001 -6.44787,0 -6.44787,0c0.00002,-0.00001 0.58617,-1.27891 0.58617,-1.27891c0.76733,-1.77345 1.68178,-3.24418 2.82428,-4.36963c1.1425,-1.12547 2.68572,-1.99724 4.4762,-2.61111c1.37216,-0.45297 2.8705,-0.75354 4.47621,-0.85261zm27.01711,0c0.24046,-0.02956 0.50356,0 0.74603,0c1.55173,0 3.00545,0.4668 4.36963,1.43877c0.00002,0.00002 0.79932,0.58617 0.79932,0.58617c0.00001,0 -3.30386,5.4354 -3.30386,5.4354c0.00001,-0.00002 -0.9059,-0.63946 -0.9059,-0.63946c-0.66503,-0.42629 -1.34501,-0.63946 -2.07824,-0.63946c-0.64801,0.00002 -1.28744,0.2302 -1.91839,0.63946c-0.64797,0.4263 -1.11904,0.99115 -1.54534,1.75851c-0.69916,1.31304 -1.24056,2.78377 -1.59865,4.36963c-0.00002,0.00001 -2.93085,13.10889 -2.93085,13.10889c0.00002,-0.00002 -6.18142,0 -6.18142,0c0,-0.00002 5.70182,-25.57832 5.70182,-25.57832c-0.00001,0.00001 5.75512,0 5.75512,0c0,0.00001 -0.14494,0.77588 -0.21314,1.06576c0.27282,-0.20461 0.54353,-0.48599 0.79932,-0.63946c0.81263,-0.4929 1.64571,-0.80035 2.50455,-0.90589zm18.27783,0c0.37185,-0.02815 0.73859,0 1.11906,0c3.47866,0 6.12813,1.21922 7.83337,3.62359c1.09135,1.55174 1.65193,3.47012 1.65193,5.75512c-0.00002,1.26185 -0.2089,2.61965 -0.53289,4.10319c0,0 -0.4263,1.86509 -0.4263,1.86509c-0.00001,-0.00002 -15.64968,0 -17.37194,0c-0.03411,0.35808 -0.10659,0.74177 -0.10659,1.06576c0,1.33009 0.28989,2.37665 0.85262,3.14401c0.08766,0.11936 0.223,0.2667 0.31972,0.37302c0.05602,0.05967 0.15412,0.15773 0.21316,0.21314c0.76235,0.69302 1.79981,1.06577 3.0907,1.06577c1.26189,-0.00002 2.37027,-0.34745 3.41045,-1.01248c0.98905,-0.63093 1.91839,-1.63914 2.77099,-3.03742c-0.00002,-0.00003 6.66102,0 6.66102,0c0,-0.00003 -0.63946,1.27891 -0.63946,1.27891c-1.26187,2.55785 -3.03955,4.55294 -5.22224,5.96828c-2.21677,1.41533 -4.81085,2.1848 -7.72679,2.1848c-3.76851,-0.00001 -6.52034,-1.21922 -8.25966,-3.62358c-1.7223,-2.35323 -2.1294,-5.60593 -1.22563,-9.69846c0.92081,-4.16073 2.70491,-7.48591 5.38211,-9.80502c2.41475,-2.08062 5.17852,-3.23468 8.20637,-3.46372zm-93.3076,0.47959c0.00002,0.00001 6.34131,0 6.34131,0c0.00002,0.00001 0.78226,15.17861 0.79931,15.40027c0.25578,-0.54356 0.45424,-1.00087 0.47961,-1.06575c0.00001,0.00001 6.98074,-14.33452 6.98074,-14.33452c0.00002,0.00001 5.80841,0 5.80841,0c-0.00001,0.00001 0.53288,14.99528 0.53288,15.08054c0.17055,-0.30691 7.93994,-15.08054 7.93994,-15.08054c-0.00002,0.00001 6.28801,0 6.28801,0c-0.00001,0.00001 -13.85493,25.57832 -13.85493,25.57832c0.00002,-0.00002 -5.70183,0 -5.70183,0c0,-0.00002 -0.55206,-13.86984 -0.58617,-14.65426c-2.35323,4.8258 -7.14063,14.65426 -7.14063,14.65426c0,-0.00002 -5.86168,0 -5.86168,0c0,-0.00002 -2.02497,-25.57832 -2.02497,-25.57832zm-148.88715,4.84922c-1.46893,0.06202 -2.80295,0.59149 -4.04989,1.59864c-0.98902,0.78441 -1.65621,1.86084 -2.18483,3.03743c0,0.00002 10.49777,0 10.49777,0c0.01707,-0.18756 0.05329,-0.41564 0.05329,-0.58617c-0.00002,-0.97195 -0.17266,-1.72653 -0.47959,-2.2381c-0.75028,-1.22777 -1.86295,-1.8118 -3.51702,-1.8118c-0.0991,0 -0.2218,-0.00412 -0.31973,0zm27.76313,0c-1.46892,0.06202 -2.80295,0.59149 -4.0499,1.59864c-0.98904,0.78441 -1.63913,1.86084 -2.1848,3.03743c0,0.00002 10.49776,0 10.49776,0c0.01704,-0.18756 0.05329,-0.41564 0.05329,-0.58617c-0.00001,-0.97195 -0.1556,-1.72653 -0.4796,-2.2381c-0.14894,-0.24939 -0.35043,-0.49739 -0.53288,-0.69274c-0.71199,-0.73572 -1.6919,-1.11906 -2.98413,-1.11906c-0.09911,0 -0.2218,-0.00412 -0.31974,0zm214.75136,0c-1.51056,0.04653 -2.92125,0.55794 -4.20977,1.59864c-0.97198,0.78441 -1.63915,1.86084 -2.18482,3.03743c0.00002,0.00002 10.44449,0 10.44449,0c0.01703,-0.18756 0.05329,-0.41564 0.05329,-0.58617c-0.00001,-0.97195 -0.1556,-1.72653 -0.4796,-2.2381c-0.73324,-1.21072 -1.86296,-1.79474 -3.51702,-1.8118c-0.04902,0.00053 -0.05784,-0.0015 -0.10657,0zm-139.61502,0.10658c-1.40963,0.16739 -2.72036,0.81051 -3.94333,1.91837c-1.46648,1.33009 -2.53012,3.41897 -3.14399,6.18143c-0.25579,1.15955 -0.37303,2.15071 -0.37303,3.03742c0.00002,1.2107 0.23233,2.16137 0.69275,2.87756c0.12257,0.18384 0.28516,0.37811 0.42631,0.53289c0.75804,0.80488 1.81659,1.22563 3.144,1.22563c1.72226,-0.00002 3.23992,-0.64159 4.68935,-1.97167c1.46652,-1.34714 2.51307,-3.45734 3.144,-6.288c0.5798,-2.59195 0.49878,-4.52736 -0.31972,-5.75512c-0.7844,-1.19366 -1.93116,-1.75851 -3.51701,-1.75851c-0.26911,0 -0.5383,-0.03101 -0.79933,0zm96.29173,9.32543c-1.44941,0.39218 -3.07367,0.72258 -5.22224,1.01248c-1.60289,0.23874 -2.74541,0.49024 -3.41045,0.74603c-0.57976,0.23872 -1.04658,0.56911 -1.43878,1.01248c-0.37516,0.42627 -0.62666,0.87392 -0.74602,1.38549c-0.03409,0.20464 -0.0533,0.41564 -0.0533,0.58617c0,0.01384 -0.00031,0.03958 0,0.05329c0.00179,0.04058 -0.00445,0.1207 0,0.15985c0.01068,0.07737 0.03217,0.1944 0.0533,0.26645c0.00762,0.02373 0.04451,0.08339 0.05327,0.10657c0.01866,0.04584 0.03015,0.11611 0.05329,0.15987c0.02427,0.04326 0.0779,0.11849 0.10658,0.15986c0.04464,0.06137 0.1055,0.1556 0.15987,0.21315c0.42631,0.47746 1.27678,0.69275 2.50454,0.69275c1.34715,0.00001 2.6431,-0.25578 3.83675,-0.85261c1.17662,-0.57977 2.12513,-1.44518 2.82427,-2.45126c0.51159,-0.7162 0.92083,-1.8182 1.27892,-3.25057z"/>
                <path fill="#bd0000" fill-rule="evenodd" stroke-width="1pt" id="path2583" d="m345.026936,227.037165c-0.01706,0 -0.03411,0 -0.05116,0c1.65407,0.01705 2.74541,0.57978 3.47865,1.79048c0.324,0.51157 0.49452,1.27892 0.49452,2.2509c0,0.17052 -0.03411,0.3922 -0.05116,0.57977c0,0 0.06821,0 0.06821,0c0,-0.18757 0.0341,-0.40925 0.0341,-0.57977c0,-0.97198 -0.15347,-1.73933 -0.47746,-2.2509c-0.73324,-1.22776 -1.84164,-1.79048 -3.4957,-1.79048z"/>
                <path fill="#bd0000" fill-opacity="0" fill-rule="evenodd" stroke="#bd0000" stroke-width="8.526108" stroke-miterlimit="4" d="m388.502936,253.545605c0.69221,1.77962 1.38445,3.55633 2.1055,5.2941c1.11046,2.36077 2.39396,4.6206 3.93704,6.73045c8.33557,11.33086 22.29546,17.53495 40.01931,19.07947c0,0 19.06506,0 19.06506,0c6.02811,-0.47014 12.34467,-1.34696 18.89198,-2.62759c11.29193,-2.2079 23.26167,-5.5998 35.69288,-10.13244c9.41715,-3.43375 19.0939,-7.49624 28.91485,-12.21778c21.38688,-10.25215 43.48041,-23.47509 65.15575,-39.43235c7.13857,-5.25082 13.98872,-10.63863 20.56487,-16.1173c6.02813,-5.01576 11.8111,-10.10942 17.33446,-15.25927c15.41645,-14.85689 27.0545,-29.94597 33.64507,-43.1949c6.86452,-13.7969 8.23461,-25.59358 2.61028,-33.02493c-3.44673,-4.56146 -9.21527,-7.00589 -16.64228,-7.5813c33.45753,-25.10471 52.95528,-55.55833 45.96096,-74.7589c-2.22096,-6.1277 -7.10981,-10.6992 -14.11858,-13.2273c-3.11497,-1.1205 -6.61943,-1.8301 -10.4411,-2.1531c0,0 -10.29683,0 -10.29683,0c-14.37808,1.0369 -35.28664,6.1853 -53.0249,14.8785" id="path2647"/>
            </g>
        </g>
    </g>
</svg>
